<svg width="64" height="27" viewBox="0 0 64 27" fill="none" xmlns="http://www.w3.org/2000/svg">
<rect y="21" width="6" height="6" fill="#151616"/>
<rect x="44" y="21" width="6" height="6" fill="#151616"/>
<rect y="14" width="6" height="6" fill="#151616"/>
<rect x="44" y="14" width="6" height="6" fill="#151616"/>
<rect y="7" width="6" height="6" fill="#151616"/>
<rect x="42" y="7" width="8" height="6" fill="#151616"/>
<path d="M0 5C0 2.23858 2.23858 0 5 0H6V6H0V5Z" fill="#00EACE"/>
<path d="M44 5C44 2.23858 46.2386 0 49 0H50V6H44V5Z" fill="#151616"/>
<rect x="7" width="6" height="6" fill="#151616"/>
<rect x="51" width="6" height="6" fill="#151616"/>
<path d="M22 14H28V20H27C24.2386 20 22 17.7614 22 15V14Z" fill="#151616"/>
<rect x="22" y="6" width="6" height="8" fill="#151616"/>
<rect x="36" y="6" width="6" height="8" fill="#151616"/>
<path d="M22 5C22 2.23858 24.2386 0 27 0H28V6H22V5Z" fill="#151616"/>
<rect x="28" width="8" height="6" fill="#151616"/>
<path d="M36 0H37C39.7614 0 42 2.23858 42 5V6H36V0Z" fill="#151616"/>
<rect x="28" y="14" width="8" height="6" fill="#151616"/>
<path d="M36 14H42V15C42 17.7614 39.7614 20 37 20H36V14Z" fill="#151616"/>
<path d="M14 0H15C17.7614 0 20 2.23858 20 5V6H14V0Z" fill="#151616"/>
<path d="M58 0H59C61.7614 0 64 2.23858 64 5V6H58V0Z" fill="#151616"/>
<rect x="14" y="7" width="8" height="6" fill="#151616"/>
<rect x="58" y="7" width="6" height="6" fill="#151616"/>
<path d="M14 14H20V15C20 17.7614 17.7614 20 15 20H14V14Z" fill="#151616"/>
<path d="M58 14H64V15C64 17.7614 61.7614 20 59 20H58V14Z" fill="#00EACE"/>
<rect x="7" y="14" width="6" height="6" fill="#151616"/>
<rect x="51" y="14" width="6" height="6" fill="#151616"/>
</svg>

